<svg xmlns="http://www.w3.org/2000/svg" xmlns:xlink="http://www.w3.org/1999/xlink"><defs>
<clipPath id="clip0_248_2048">
<rect width="205" height="60" fill="white"/>
</clipPath>

<clipPath id="clip0_248_2190">
<rect width="25" height="25" fill="white"/>
</clipPath>

<clipPath id="clip0_248_2161">
<rect width="25" height="25" fill="white"/>
</clipPath>

<clipPath id="clip0_131_2748">
<rect width="22" height="22" fill="white"/>
</clipPath>

<clipPath id="clip0_248_2173">
<rect width="23" height="23" fill="white"/>
</clipPath>

<clipPath id="clip0_248_2488">
<rect width="15" height="14" fill="white"/>
</clipPath>
<clipPath id="clip1_248_2488">
<rect width="15" height="14" fill="white" transform="translate(16)"/>
</clipPath>
<clipPath id="clip2_248_2488">
<rect width="15" height="14" fill="white" transform="translate(32)"/>
</clipPath>
<clipPath id="clip3_248_2488">
<rect width="15" height="14" fill="white" transform="translate(48)"/>
</clipPath>
<clipPath id="clip4_248_2488">
<rect width="15" height="14" fill="white" transform="translate(64)"/>
</clipPath>

<clipPath id="clip0_248_2533">
<rect width="15" height="14" fill="white"/>
</clipPath>
<clipPath id="clip1_248_2533">
<rect width="15" height="14" fill="white" transform="translate(16)"/>
</clipPath>
<clipPath id="clip2_248_2533">
<rect width="15" height="14" fill="white" transform="translate(32)"/>
</clipPath>
<clipPath id="clip3_248_2533">
<rect width="15" height="14" fill="white" transform="translate(48)"/>
</clipPath>
<clipPath id="clip4_248_2533">
<rect width="15" height="14" fill="white" transform="translate(64)"/>
</clipPath>
</defs><symbol id="arrow-forward" viewBox="0 0 9 14"><g fill="none">
<path d="M1 13L7 7L0.999999 1" stroke="currentColor" stroke-width="2"/>
</g></symbol><symbol id="arrow-left" viewBox="0 0 14 9"><g fill="none">
<path d="M0.646446 4.85355C0.451184 4.65829 0.451184 4.34171 0.646446 4.14645L3.82843 0.964466C4.02369 0.769204 4.34027 0.769204 4.53553 0.964466C4.7308 1.15973 4.7308 1.47631 4.53553 1.67157L1.70711 4.5L4.53553 7.32843C4.7308 7.52369 4.7308 7.84027 4.53553 8.03553C4.34027 8.2308 4.02369 8.2308 3.82843 8.03553L0.646446 4.85355ZM14 5H1V4H14V5Z" fill="currentColor"/>
</g></symbol><symbol id="boots-advantages" viewBox="0 0 22 22"><g fill="none">
<path d="M20.7153 14.2434C21.3367 12.1487 20.8254 9.77108 20.2821 8.12359C20.2785 8.05985 20.2602 7.99807 20.2288 7.94394C20.0442 7.40879 19.8737 6.96921 19.7281 6.65194C19.9961 6.53708 20.1729 6.25909 20.1755 5.94861V2.76449C20.1755 2.34225 19.8576 2 19.4654 2H10.7408C10.5447 1.99962 10.3854 2.17043 10.3851 2.38158C10.3851 2.38946 10.3853 2.39735 10.3857 2.40518C10.5064 4.69866 10.3502 6.25441 9.89923 7.35146C9.89026 7.36235 9.88196 7.37386 9.87437 7.38586C9.87304 7.40492 9.87304 7.42413 9.87437 7.44319C9.70224 7.84255 9.46943 8.20812 9.1855 8.52495L9.15354 8.54789C9.15354 8.54789 9.15354 8.54789 9.15354 8.57465C8.73724 9.00205 8.25711 9.35094 7.73318 9.60671C6.82033 10.0427 5.88351 10.418 4.92796 10.7305L4.74687 10.7955C1.42677 11.9805 0.993564 14.1287 1.00067 15.2066C0.999778 15.2219 0.999778 15.2372 1.00067 15.2525V17.9817C1.0012 18.1146 1.06569 18.2376 1.17111 18.3066C1.9848 18.8396 2.86311 19.2486 3.78102 19.5222C3.9698 19.5793 4.1659 19.4609 4.21898 19.2577C4.22897 19.2194 4.23336 19.1797 4.23199 19.1399V19.052H4.75397V19.4343C4.75171 19.6236 4.87861 19.7862 5.05225 19.8165C5.36117 19.87 5.6701 19.9121 5.97193 19.9388C6.07082 19.9478 6.16869 19.9117 6.2418 19.8395C6.31486 19.7665 6.35609 19.6639 6.35543 19.5566V19.075H6.87741V19.6178C6.87741 19.8288 7.0364 20 7.2325 20C7.53077 20 7.82905 20 8.14863 19.9541C8.33359 19.9382 8.47589 19.7716 8.47531 19.5719V19.075H8.9973V19.4113C8.99477 19.6224 9.15167 19.7958 9.34777 19.7985C9.36832 19.7988 9.38887 19.7972 9.4092 19.7936C10.061 19.6861 10.7035 19.5212 11.3302 19.3005L11.3871 19.2737C13.8727 17.7447 15.4493 19.0023 15.5132 19.0559C15.5752 19.1076 15.6513 19.1358 15.7298 19.1361H16.1701C16.3662 19.1361 16.5252 18.965 16.5252 18.7539V18.1079H17.033V18.7462C17.033 18.9573 17.192 19.1285 17.3881 19.1285H18.5315C18.7276 19.1285 18.8866 18.9573 18.8866 18.7462V18.1079H19.4121V18.7462C19.4121 18.9573 19.5711 19.1285 19.7672 19.1285H20.6443C20.8404 19.1285 20.9993 18.9573 20.9993 18.7462V14.6256C21.0028 14.4411 20.8833 14.2803 20.7153 14.2434ZM12.289 2.77214H19.4476V5.93714H12.289V2.77214ZM7.8255 10.3941L7.82905 10.4171C8.12014 10.6715 8.38876 10.9543 8.63155 11.2618C8.56715 11.3771 8.53395 11.5095 8.53568 11.6441C8.53324 12.0473 8.83493 12.3763 9.20946 12.3789C9.58404 12.3815 9.88964 12.0568 9.89208 11.6536C9.89439 11.2737 9.62572 10.9555 9.27427 10.9216C9.04967 10.592 8.79379 10.2884 8.51082 10.0157C8.82814 9.8213 9.12668 9.59338 9.4021 9.33532C9.74649 9.68311 10.0669 10.0574 10.3608 10.4553C10.2373 10.836 10.4238 11.2523 10.7774 11.3854C11.131 11.5183 11.5178 11.3176 11.6414 10.9369C11.7649 10.5563 11.5784 10.1399 11.2248 10.0069C11.1515 9.97926 11.0742 9.96545 10.9965 9.96602H10.9112C10.5998 9.54393 10.2604 9.14663 9.89567 8.77724C10.0649 8.5529 10.2147 8.31238 10.3431 8.05861C10.8928 8.36665 11.4241 8.71135 11.9339 9.09068C11.9304 9.49811 12.2344 9.83143 12.6129 9.8352C12.9914 9.83897 13.301 9.51172 13.3045 9.1043C13.308 8.69687 13.004 8.36355 12.6255 8.35977C12.5174 8.35868 12.4106 8.38515 12.3138 8.43704C11.7773 8.046 11.2187 7.69113 10.6414 7.37439C11.0284 6.26587 11.1953 4.79422 11.1172 2.78743H11.5824V5.95243C11.5824 6.37467 11.9003 6.71693 12.2925 6.71693H18.9469C19.0392 6.91952 19.1955 7.27118 19.3659 7.72988H19.2203C17.0632 7.74665 15.3271 9.64269 15.3427 11.9648C15.3515 13.2844 15.9353 14.5229 16.9194 15.3098C14.0467 16.124 9.72523 17.0911 6.08911 16.8388C6.76023 13.9529 5.95773 12.1754 5.43574 11.3956C6.24859 11.1086 7.04634 10.7743 7.8255 10.3941ZM4.72201 11.6135C5.10551 12.099 6.10686 13.7312 5.37183 16.7318C4.09235 16.6235 2.84967 16.2193 1.7286 15.5468C1.71586 15.4595 1.70756 15.3714 1.70374 15.2831V15.2563C1.67534 14.4421 1.95941 12.68 4.72201 11.6135ZM20.1223 18.364V17.7256C20.1223 17.5145 19.9633 17.3434 19.7672 17.3434H18.535C18.3389 17.3434 18.1799 17.5145 18.1799 17.7256V18.364H17.7432V17.7256C17.7432 17.5145 17.5842 17.3434 17.3881 17.3434H16.163C15.9669 17.3434 15.8079 17.5145 15.8079 17.7256V18.3487C15.325 18.0238 13.5602 17.0796 11.0568 18.5857C10.6114 18.7439 10.1572 18.8716 9.69683 18.9679V18.7042C9.69683 18.4931 9.53783 18.3219 9.34173 18.3219H8.11667C7.92058 18.3219 7.76158 18.4931 7.76158 18.7042V19.2279H7.58049V18.6927C7.58049 18.4816 7.4215 18.3105 7.2254 18.3105H5.99323C5.79714 18.3105 5.63814 18.4816 5.63814 18.6927V19.1476L5.45705 19.1208V18.6927C5.45705 18.4816 5.29806 18.3105 5.10196 18.3105H3.86979C3.68919 18.3091 3.53637 18.4538 3.5147 18.6468C2.88446 18.4235 2.27757 18.1301 1.70374 17.7715V16.4031C3.25194 17.286 5.25465 17.6186 7.38519 17.6186C13.0453 17.6186 19.5222 15.2869 20.2856 15.0079L20.2892 18.364H20.1223ZM19.9483 14.3313C19.6465 14.4383 18.9043 14.7135 17.8781 15.0079C16.2894 14.1801 15.6248 12.1228 16.3937 10.4125C16.9197 9.24267 18.0132 8.49175 19.2203 8.47144C19.3603 8.46934 19.5003 8.47698 19.6394 8.49437L19.6429 8.50584C20.1649 10.1266 20.6336 12.4392 19.9483 14.3313Z" fill="#0266C1"/>
<path d="M13.6564 3.23469C13.0857 3.23469 12.6231 3.73271 12.6231 4.34703C12.625 4.96049 13.0865 5.45727 13.6564 5.45937C14.227 5.45937 14.6897 4.96135 14.6897 4.34703C14.6897 3.73271 14.2271 3.23469 13.6564 3.23469ZM13.6564 4.69487C13.4779 4.69487 13.3332 4.53916 13.3332 4.34703C13.3332 4.1549 13.4779 3.99918 13.6564 3.99918C13.8348 3.99918 13.9795 4.1549 13.9795 4.34703C13.9795 4.53916 13.8348 4.69487 13.6564 4.69487Z" fill="#0266C1"/>
</g></symbol><symbol id="boots" viewBox="0 0 24 24"><g fill="none">
<path d="M23.6583 15.6155C24.404 13.2805 23.7904 10.6301 23.1385 8.79354C23.1342 8.72248 23.1123 8.65361 23.0746 8.59327C22.853 7.99671 22.6484 7.50669 22.4737 7.15302C22.7953 7.02497 23.0075 6.71509 23.0106 6.36898V2.8195C23.0106 2.34881 22.6291 1.96729 22.1584 1.96729H11.6889C11.4536 1.96686 11.2625 2.15728 11.2621 2.39265C11.2621 2.40144 11.2624 2.41023 11.2628 2.41896C11.4077 4.97561 11.2202 6.70987 10.6791 7.9328C10.6683 7.94494 10.6583 7.95778 10.6492 7.97115C10.6476 7.9924 10.6476 8.01381 10.6492 8.03506C10.4427 8.48024 10.1633 8.88776 9.82259 9.24095L9.78424 9.26652C9.78424 9.26652 9.78424 9.26652 9.78424 9.29634C9.28468 9.77279 8.70853 10.1617 8.07981 10.4468C6.98439 10.9329 5.86021 11.3512 4.71355 11.6996L4.49624 11.772C0.512129 13.093 -0.00772321 15.4877 0.000798953 16.6893C-0.000266318 16.7064 -0.000266318 16.7234 0.000798953 16.7404V19.7829C0.00143811 19.9309 0.07883 20.068 0.205331 20.1451C1.18176 20.7392 2.23574 21.1951 3.33722 21.5001C3.56375 21.5638 3.79907 21.4318 3.86278 21.2052C3.87476 21.1625 3.88003 21.1182 3.87838 21.074V20.976H4.50476V21.4021C4.50204 21.6132 4.65433 21.7944 4.86269 21.8282C5.23341 21.8878 5.60412 21.9347 5.96631 21.9645C6.08498 21.9745 6.20243 21.9343 6.29015 21.8537C6.37783 21.7724 6.42731 21.658 6.42651 21.5384V21.0015H7.05289V21.6066C7.05289 21.8419 7.24368 22.0327 7.479 22.0327C7.83693 22.0327 8.19486 22.0327 8.57835 21.9816C8.8003 21.9638 8.97107 21.7781 8.97037 21.5555V21.0015H9.59675V21.3765C9.59372 21.6118 9.782 21.8051 10.0173 21.8081C10.042 21.8084 10.0666 21.8066 10.091 21.8026C10.8732 21.6828 11.6442 21.499 12.3963 21.2529L12.4645 21.2231C15.4472 19.5187 17.3391 20.9206 17.4158 20.9802C17.4902 21.038 17.5816 21.0694 17.6758 21.0697H18.2041C18.4395 21.0697 18.6302 20.8789 18.6302 20.6436V19.9235H19.2396V20.6351C19.2396 20.8704 19.4304 21.0612 19.6657 21.0612H21.0378C21.2731 21.0612 21.4639 20.8704 21.4639 20.6351V19.9235H22.0945V20.6351C22.0945 20.8704 22.2853 21.0612 22.5206 21.0612H23.5731C23.8084 21.0612 23.9992 20.8704 23.9992 20.6351V16.0416C24.0034 15.8359 23.8599 15.6566 23.6583 15.6155ZM13.5468 2.82802H13.8962H22.1371V6.3562H13.5468V2.82802ZM8.1906 11.3246L8.19486 11.3502C8.54416 11.6338 8.86651 11.949 9.15786 12.2919C9.08058 12.4204 9.04073 12.568 9.04281 12.718C9.03988 13.1675 9.40191 13.5342 9.85135 13.5371C10.3008 13.5401 10.6676 13.178 10.6705 12.7286C10.6733 12.3051 10.3509 11.9504 9.92912 11.9126C9.6596 11.5452 9.35254 11.2067 9.01298 10.9028C9.39377 10.686 9.75202 10.432 10.0825 10.1443C10.4958 10.532 10.8803 10.9493 11.233 11.3928C11.0848 11.8171 11.3086 12.2813 11.7329 12.4296C12.1572 12.5778 12.6214 12.354 12.7697 11.9297C12.9179 11.5053 12.6941 11.0412 12.2698 10.8929C12.1817 10.8621 12.0891 10.8467 11.9957 10.8474H11.8935C11.5197 10.3768 11.1125 9.93396 10.6748 9.52218C10.8779 9.27211 11.0576 9.00398 11.2117 8.7211C11.8714 9.06449 12.5089 9.44873 13.1207 9.87159C13.1165 10.3258 13.4813 10.6973 13.9354 10.7015C14.3896 10.7057 14.7612 10.3409 14.7654 9.88677C14.7696 9.43259 14.4048 9.06102 13.9506 9.05682C13.8209 9.05559 13.6927 9.0851 13.5766 9.14294C12.9327 8.70704 12.2624 8.31145 11.5696 7.95836C12.0341 6.72265 12.2344 5.08214 12.1406 2.84507H12.6988V6.37324C12.6988 6.84393 13.0803 7.22546 13.551 7.22546H21.5363C21.6471 7.4513 21.8346 7.84331 22.0391 8.35464H21.8644C19.2758 8.37334 17.1925 10.4869 17.2112 13.0755C17.2218 14.5465 17.9224 15.9272 19.1032 16.8044C15.656 17.712 10.4703 18.79 6.10693 18.5088C6.91227 15.2917 5.94927 13.3103 5.32289 12.441C6.2983 12.1211 7.25561 11.7484 8.1906 11.3246ZM4.46641 12.6839C4.92661 13.2251 6.12823 15.0445 5.24619 18.3895C3.71082 18.2688 2.2196 17.8182 0.874321 17.0686C0.859034 16.9712 0.849074 16.873 0.844493 16.7745V16.7447C0.810404 15.8371 1.15129 13.8727 4.46641 12.6839ZM22.9467 20.209V19.4974C22.9467 19.262 22.7559 19.0713 22.5206 19.0713H21.042C20.8067 19.0713 20.6159 19.262 20.6159 19.4974V20.209H20.0918V19.4974C20.0918 19.262 19.901 19.0713 19.6657 19.0713H18.1956C17.9603 19.0713 17.7695 19.262 17.7695 19.4974V20.1919C17.19 19.8297 15.0722 18.7772 12.0682 20.4561C11.5337 20.6325 10.9886 20.7748 10.4362 20.8822V20.5882C10.4362 20.3529 10.2454 20.1621 10.0101 20.1621H8.54C8.30469 20.1621 8.1139 20.3529 8.1139 20.5882V21.172H7.89658V20.5754C7.89658 20.3401 7.70579 20.1493 7.47047 20.1493H5.99188C5.75656 20.1493 5.56577 20.3401 5.56577 20.5754V21.0825L5.34845 21.0527V20.5754C5.34845 20.3401 5.15767 20.1493 4.92235 20.1493H3.44375C3.22702 20.1478 3.04364 20.3091 3.01764 20.5243C2.26136 20.2753 1.53308 19.9482 0.844493 19.5485V18.023C2.70232 19.0073 5.10557 19.3781 7.66222 19.3781C14.4544 19.3781 22.2266 16.7788 23.1427 16.4677L23.147 20.209H22.9467ZM22.7379 15.7135C22.3757 15.8328 21.4852 16.1396 20.2537 16.4677C18.3473 15.5451 17.5497 13.2516 18.4724 11.3451C19.1036 10.041 20.4158 9.20393 21.8644 9.18129C22.0324 9.17895 22.2003 9.18747 22.3672 9.20686L22.3715 9.21964C22.9979 11.0263 23.5603 13.6043 22.7379 15.7135Z" fill="#2D383F"/>
<path d="M15.1872 3.34375C14.5024 3.34375 13.9473 3.89892 13.9473 4.58372C13.9496 5.26757 14.5034 5.82135 15.1872 5.8237C15.872 5.8237 16.4272 5.26853 16.4272 4.58372C16.4272 3.89892 15.8721 3.34375 15.1872 3.34375ZM15.1872 4.97148C14.9731 4.97148 14.7995 4.7979 14.7995 4.58372C14.7995 4.36955 14.9731 4.19597 15.1872 4.19597C15.4014 4.19597 15.575 4.36955 15.575 4.58372C15.575 4.7979 15.4014 4.97148 15.1872 4.97148Z" fill="#2D383F"/>
</g></symbol><symbol id="crown" viewBox="0 0 22 22"><g fill="none">
<path d="M17.6867 20H4.31331M21 7.11028L18.0746 16.8049H3.92539L1 7.11028L6.77168 10.6142L11 2L15.2283 10.6142L21 7.11028Z" stroke="#0266C1"/>
</g></symbol><symbol id="icon-close" viewBox="0 0 20 20"><g fill="none"><path d="M.293 18.291a1 1 0 101.414 1.414L10 11.413l8.292 8.292a1 1 0 101.414-1.414l-8.292-8.292 8.292-8.292A1 1 0 1018.291.293L9.999 8.585 1.707.293A1 1 0 10.293 1.707L8.585 10 .293 18.291z"/></g></symbol><symbol id="leaf" viewBox="0 0 22 22"><g fill="none">
<path d="M10.6903 16.2442C10.0125 13.3813 8.01953 10.9718 5.27543 9.69773C3.92399 9.07026 2.46282 8.75181 1 8.74238C1.08555 10.771 1.83429 12.7457 3.17529 14.367C5.06036 16.646 7.9121 17.9803 10.933 17.9998C10.9083 17.4135 10.828 16.8259 10.6903 16.2442ZM10.6903 16.2442C10.1339 13.894 8.69109 11.8494 6.67408 10.4875C6.70814 10.2845 6.74903 10.0818 6.79684 9.87988C7.37026 7.4577 8.88519 5.36004 11 4C13.1147 5.36004 14.6297 7.4577 15.2031 9.87988C15.2509 10.0818 15.2918 10.2845 15.3258 10.4875C13.3088 11.8493 11.8661 13.894 11.3097 16.2442M10.6903 16.2442C10.8279 16.8257 10.9082 17.4131 10.933 17.9992C10.9748 17.9997 11.0166 18 11.0585 18C11.9054 18 12.7394 17.8966 13.5431 17.698C13.5477 17.692 13.5522 17.6859 13.5567 17.6799C12.752 17.8849 11.9162 17.9943 11.067 17.9998M11.3097 16.2442C11.9875 13.3813 13.9805 10.9718 16.7246 9.69773C18.076 9.07026 19.5372 8.75181 21 8.74238C20.9144 10.771 20.1657 12.7457 18.8247 14.367C16.9396 16.646 14.0879 17.9803 11.067 17.9998M11.3097 16.2442C11.172 16.8259 11.0917 17.4135 11.067 17.9998" stroke="#0266C1" stroke-linecap="round" stroke-linejoin="round"/>
</g></symbol><symbol id="level" viewBox="0 0 22 22"><g fill="none">
<path d="M8.75001 10.912L11 13.1562L14.9375 9.22882M11 1C8.67869 2.18698 6.09257 2.81813 3.44902 2.81813C3.09212 2.81813 2.73627 2.80662 2.38197 2.7838C1.92463 4.87029 1.87403 7.04136 2.25148 9.17646C2.92717 12.9986 4.93142 16.4612 7.91222 18.9559C8.86795 19.7558 9.90448 20.4398 11 21C12.0955 20.4398 13.132 19.7558 14.0878 18.9559C17.0686 16.4612 19.0728 12.9986 19.7485 9.17647C20.126 7.04136 20.0754 4.87029 19.618 2.7838C19.2637 2.80662 18.9078 2.81813 18.5509 2.81813C15.9074 2.81813 13.3212 2.18698 11 1Z" stroke="#0266C1"/>
</g></symbol><symbol id="logotype" viewBox="0 0 205 60"><g fill="none">
<g clip-path="url(#clip0_248_2048)">
<path d="M22.7109 38.9207L28.1507 33.37L34.3385 38.9207H44.9461L28.0827 22.8634L11.3553 38.9207H22.7109Z" fill="currentColor"/>
<path d="M38.2827 13.1498L30.259 21.0793L35.5628 26.3656L38.2827 23.7225L53.1742 38.1278C49.7743 46.9163 41.0706 53.1938 30.8029 53.1938C17.6114 53.1938 6.93576 42.8194 6.93576 30C7.00376 17.1806 17.6794 6.80617 30.8709 6.80617C42.5665 6.80617 52.3582 15.0661 54.3301 25.837L61.5379 33.2379C61.6739 32.1806 61.7419 31.0573 61.7419 30C61.7419 22.0044 58.546 14.4714 52.6982 8.78855C46.8504 3.10573 39.0987 0 30.8709 0C22.5752 0 14.8915 3.10573 9.04369 8.78855C3.19589 14.4714 0 21.9383 0 30C0 38.0617 3.19589 45.5286 9.04369 51.2115C14.8915 56.8943 22.6432 60 30.8709 60C39.0987 60 46.8504 56.8943 52.6982 51.2115C56.3021 47.7092 58.886 43.5463 60.3139 38.9868C60.5859 38.1938 60.7899 37.3348 60.9939 36.5419L54.7381 30.1322L38.2827 13.1498Z" fill="currentColor"/>
<path d="M87.2138 19.2778H91.7535L89.2773 31.3763H96.9351L96.2015 34.8744H84.0039L87.2138 19.2778Z" fill="currentColor"/>
<path d="M101.208 19.2778H105.747L102.538 34.8744H97.9979L101.208 19.2778Z" fill="currentColor"/>
<path d="M112.806 22.6868L112.095 26.1181H119.18L118.469 29.527H111.408L110.307 34.8744H105.767L108.977 19.2778H121.542L120.831 22.6868H112.806Z" fill="currentColor"/>
<path d="M127.448 22.6868L126.921 25.3159H134.051L133.386 28.6135H126.233L125.659 31.4655H134.074L133.34 34.8744H120.478L123.688 19.2778H136.252L135.541 22.6868H127.448Z" fill="currentColor"/>
<path d="M141.775 22.7759H136.845L137.579 19.2778H151.955L151.221 22.7759H146.315L143.815 34.8744H139.276L141.775 22.7759Z" fill="currentColor"/>
<path d="M158.879 35.1864C157.259 35.1864 155.845 34.8967 154.637 34.3174C153.445 33.7381 152.52 32.9286 151.863 31.8888C151.221 30.849 150.9 29.6607 150.9 28.3239C150.9 26.5414 151.32 24.9372 152.161 23.5112C153.017 22.0852 154.202 20.9712 155.715 20.1691C157.243 19.3669 158.978 18.9659 160.919 18.9659C162.54 18.9659 163.946 19.2555 165.138 19.8348C166.346 20.4141 167.27 21.2237 167.912 22.2635C168.57 23.3032 168.898 24.4915 168.898 25.8284C168.898 27.6109 168.47 29.2151 167.614 30.6411C166.774 32.0671 165.589 33.1811 164.061 33.9832C162.547 34.7853 160.82 35.1864 158.879 35.1864ZM159.269 31.5323C160.278 31.5323 161.164 31.2872 161.928 30.797C162.693 30.3069 163.281 29.6533 163.694 28.8363C164.106 28.0045 164.313 27.091 164.313 26.0958C164.313 25.0411 163.977 24.2019 163.304 23.578C162.647 22.9393 161.722 22.62 160.53 22.62C159.521 22.62 158.634 22.865 157.87 23.3552C157.106 23.8454 156.517 24.5064 156.105 25.3382C155.692 26.1552 155.486 27.0613 155.486 28.0565C155.486 29.1111 155.814 29.9578 156.471 30.5965C157.144 31.2204 158.076 31.5323 159.269 31.5323Z" fill="currentColor"/>
<path d="M177.421 35.1864C176.03 35.1864 174.83 34.9636 173.821 34.518C172.812 34.0575 172.04 33.4039 171.505 32.5572C170.97 31.7106 170.703 30.7153 170.703 29.5716C170.703 29.0963 170.764 28.5467 170.886 27.9228L172.675 19.2778H177.214L175.449 27.856C175.357 28.3016 175.311 28.7101 175.311 29.0814C175.311 30.7153 176.198 31.5323 177.971 31.5323C178.934 31.5323 179.69 31.2501 180.241 30.6856C180.806 30.1063 181.227 29.1631 181.502 27.856L183.267 19.2778H187.738L185.927 28.1233C184.949 32.832 182.113 35.1864 177.421 35.1864Z" fill="currentColor"/>
<path d="M204.157 24.2465C204.157 25.6724 203.768 26.9053 202.988 27.9451C202.209 28.97 201.116 29.7201 199.709 30.1955L202.438 34.8744H197.692L195.307 30.7302H193.015L192.166 34.8744H187.627L190.836 19.2778H197.692C199.74 19.2778 201.33 19.716 202.461 20.5924C203.592 21.4688 204.157 22.6868 204.157 24.2465ZM199.572 24.6698C199.572 24.0311 199.35 23.5557 198.907 23.2438C198.464 22.917 197.845 22.7536 197.05 22.7536H194.665L193.702 27.3212H196.408C197.417 27.3212 198.196 27.091 198.746 26.6305C199.297 26.17 199.572 25.5165 199.572 24.6698Z" fill="currentColor"/>
<path d="M87.0264 49.5804C86.4734 49.5804 85.971 49.4616 85.5191 49.2239C85.0725 48.9811 84.7216 48.6504 84.4664 48.2319C84.2166 47.8134 84.0916 47.3433 84.0916 46.8214C84.0916 46.2996 84.2166 45.8294 84.4664 45.411C84.7216 44.9925 85.0725 44.6644 85.5191 44.4267C85.971 44.1839 86.4734 44.0625 87.0264 44.0625C87.5793 44.0625 88.0764 44.1813 88.5177 44.419C88.9643 44.6566 89.3152 44.9873 89.5704 45.411C89.8255 45.8294 89.9531 46.2996 89.9531 46.8214C89.9531 47.3433 89.8255 47.816 89.5704 48.2397C89.3152 48.6582 88.9643 48.9862 88.5177 49.2239C88.0764 49.4616 87.5793 49.5804 87.0264 49.5804ZM87.0264 49.0689C87.4676 49.0689 87.8664 48.9733 88.2226 48.7822C88.5788 48.5858 88.8579 48.3172 89.06 47.9762C89.262 47.63 89.363 47.2451 89.363 46.8214C89.363 46.3978 89.262 46.0154 89.06 45.6744C88.8579 45.3283 88.5788 45.0596 88.2226 44.8685C87.8664 44.6721 87.4676 44.574 87.0264 44.574C86.5851 44.574 86.1837 44.6721 85.8222 44.8685C85.466 45.0596 85.1842 45.3283 84.9768 45.6744C84.7748 46.0154 84.6738 46.3978 84.6738 46.8214C84.6738 47.2451 84.7748 47.63 84.9768 47.9762C85.1842 48.3172 85.466 48.5858 85.8222 48.7822C86.1837 48.9733 86.5851 49.0689 87.0264 49.0689Z" fill="currentColor"/>
<path d="M93.387 45.4265C93.7804 45.4265 94.1367 45.5143 94.4556 45.69C94.7746 45.8605 95.0245 46.1033 95.2053 46.4184C95.386 46.7336 95.4764 47.0927 95.4764 47.4957C95.4764 47.9038 95.386 48.2655 95.2053 48.5807C95.0245 48.8958 94.7746 49.1412 94.4556 49.3169C94.142 49.4874 93.7858 49.5726 93.387 49.5726C93.0467 49.5726 92.7384 49.5055 92.4619 49.3711C92.1908 49.2316 91.9675 49.0301 91.792 48.7667V51.0374H91.2258V45.4575H91.7681V46.2634C91.9382 45.9948 92.1615 45.7881 92.438 45.6435C92.7198 45.4988 93.0361 45.4265 93.387 45.4265ZM93.3471 49.0844C93.6395 49.0844 93.9054 49.0198 94.1446 48.8906C94.3839 48.7563 94.5699 48.5677 94.7029 48.3249C94.8411 48.0821 94.9102 47.8057 94.9102 47.4957C94.9102 47.1857 94.8411 46.9118 94.7029 46.6742C94.5699 46.4314 94.3839 46.2428 94.1446 46.1084C93.9054 45.9741 93.6395 45.9069 93.3471 45.9069C93.0494 45.9069 92.7809 45.9741 92.5417 46.1084C92.3077 46.2428 92.1217 46.4314 91.9834 46.6742C91.8505 46.9118 91.7841 47.1857 91.7841 47.4957C91.7841 47.8057 91.8505 48.0821 91.9834 48.3249C92.1217 48.5677 92.3077 48.7563 92.5417 48.8906C92.7809 49.0198 93.0494 49.0844 93.3471 49.0844Z" fill="currentColor"/>
<path d="M99.6596 45.9457H97.2592V49.5339H96.693V45.4575H99.6596V45.9457Z" fill="currentColor"/>
<path d="M101.921 45.4265C102.469 45.4265 102.889 45.5608 103.181 45.8294C103.474 46.0929 103.62 46.4856 103.62 47.0074V49.5339H103.078V48.8984C102.95 49.1102 102.761 49.2756 102.512 49.3944C102.267 49.5132 101.975 49.5726 101.634 49.5726C101.166 49.5726 100.794 49.4641 100.518 49.2471C100.241 49.0301 100.103 48.7434 100.103 48.3869C100.103 48.0407 100.231 47.7617 100.486 47.5499C100.746 47.3381 101.158 47.2322 101.722 47.2322H103.054V46.9842C103.054 46.6329 102.953 46.3668 102.751 46.1859C102.549 45.9999 102.254 45.9069 101.866 45.9069C101.6 45.9069 101.345 45.9509 101.1 46.0387C100.855 46.1214 100.645 46.2376 100.47 46.3874L100.215 45.9767C100.427 45.801 100.683 45.6667 100.98 45.5737C101.278 45.4755 101.592 45.4265 101.921 45.4265ZM101.722 49.1386C102.041 49.1386 102.315 49.0689 102.543 48.9294C102.772 48.7847 102.942 48.5781 103.054 48.3094V47.6429H101.738C101.02 47.6429 100.661 47.8857 100.661 48.3714C100.661 48.6091 100.754 48.7976 100.94 48.9371C101.127 49.0715 101.387 49.1386 101.722 49.1386Z" fill="currentColor"/>
<path d="M105.127 45.4575H105.694V47.2632H108.333V45.4575H108.899V49.5339H108.333V47.7359H105.694V49.5339H105.127V45.4575Z" fill="currentColor"/>
<path d="M110.509 45.4575H111.075V48.6969L113.874 45.4575H114.377V49.5339H113.81V46.2944L111.019 49.5339H110.509V45.4575Z" fill="currentColor"/>
<path d="M117.955 47.4104C118.253 47.4776 118.482 47.5938 118.641 47.7592C118.806 47.9245 118.888 48.126 118.888 48.3637C118.888 48.6013 118.803 48.8131 118.633 48.9991C118.468 49.1851 118.242 49.3298 117.955 49.4331C117.668 49.5313 117.352 49.5804 117.006 49.5804C116.703 49.5804 116.405 49.5391 116.113 49.4564C115.821 49.3686 115.565 49.242 115.347 49.0766L115.539 48.6659C115.73 48.8054 115.954 48.9139 116.209 48.9914C116.464 49.0689 116.722 49.1076 116.982 49.1076C117.37 49.1076 117.687 49.0379 117.931 48.8984C118.181 48.7537 118.306 48.56 118.306 48.3172C118.306 48.1002 118.205 47.9322 118.003 47.8134C117.801 47.6894 117.525 47.6274 117.174 47.6274H116.456V47.2244H117.142C117.455 47.2244 117.708 47.1676 117.899 47.0539C118.091 46.9351 118.186 46.7775 118.186 46.5812C118.186 46.3642 118.077 46.1937 117.86 46.0697C117.647 45.9457 117.368 45.8837 117.022 45.8837C116.57 45.8837 116.124 45.9948 115.682 46.2169L115.523 45.7907C116.023 45.5375 116.541 45.411 117.078 45.411C117.397 45.411 117.684 45.4575 117.939 45.5505C118.2 45.6383 118.402 45.7649 118.545 45.9302C118.694 46.0955 118.769 46.2867 118.769 46.5037C118.769 46.7104 118.694 46.8938 118.545 47.0539C118.402 47.2141 118.205 47.3329 117.955 47.4104Z" fill="currentColor"/>
<path d="M121.617 45.4265C122.165 45.4265 122.585 45.5608 122.877 45.8294C123.17 46.0929 123.316 46.4856 123.316 47.0074V49.5339H122.773V48.8984C122.646 49.1102 122.457 49.2756 122.207 49.3944C121.963 49.5132 121.67 49.5726 121.33 49.5726C120.862 49.5726 120.49 49.4641 120.214 49.2471C119.937 49.0301 119.799 48.7434 119.799 48.3869C119.799 48.0407 119.926 47.7617 120.182 47.5499C120.442 47.3381 120.854 47.2322 121.418 47.2322H122.75V46.9842C122.75 46.6329 122.649 46.3668 122.446 46.1859C122.244 45.9999 121.949 45.9069 121.561 45.9069C121.295 45.9069 121.04 45.9509 120.796 46.0387C120.551 46.1214 120.341 46.2376 120.166 46.3874L119.91 45.9767C120.123 45.801 120.378 45.6667 120.676 45.5737C120.974 45.4755 121.287 45.4265 121.617 45.4265ZM121.418 49.1386C121.737 49.1386 122.011 49.0689 122.239 48.9294C122.468 48.7847 122.638 48.5781 122.75 48.3094V47.6429H121.434C120.716 47.6429 120.357 47.8857 120.357 48.3714C120.357 48.6091 120.45 48.7976 120.636 48.9371C120.822 49.0715 121.083 49.1386 121.418 49.1386Z" fill="currentColor"/>
<path d="M129.193 49.0534V50.5569H128.659V49.5339H124.823V45.4575H125.389V49.0534H127.949V45.4575H128.515V49.0534H129.193Z" fill="currentColor"/>
<path d="M130.275 45.4575H130.841V48.6969L133.64 45.4575H134.142V49.5339H133.576V46.2944L130.785 49.5339H130.275V45.4575Z" fill="currentColor"/>
<path d="M138.987 45.4575V49.5339H138.469V48.1854H136.993L136.02 49.5339H135.406L136.451 48.1079C136.127 48.0201 135.877 47.8702 135.701 47.6584C135.526 47.4466 135.438 47.1779 135.438 46.8524C135.438 46.3978 135.598 46.0516 135.917 45.8139C136.236 45.5763 136.672 45.4575 137.225 45.4575H138.987ZM136.012 46.8679C136.012 47.4724 136.408 47.7747 137.201 47.7747H138.469V45.9457H137.24C136.422 45.9457 136.012 46.2531 136.012 46.8679Z" fill="currentColor"/>
<path d="M146.453 45.4575V49.5339H145.887V45.9457H143.255V49.5339H142.689V45.4575H146.453Z" fill="currentColor"/>
<path d="M149.793 49.5726C149.389 49.5726 149.025 49.4848 148.7 49.3091C148.376 49.1283 148.121 48.8803 147.935 48.5652C147.749 48.25 147.656 47.8935 147.656 47.4957C147.656 47.0978 147.749 46.7414 147.935 46.4262C148.121 46.111 148.376 45.8656 148.7 45.69C149.025 45.5143 149.389 45.4265 149.793 45.4265C150.197 45.4265 150.561 45.5143 150.885 45.69C151.21 45.8656 151.462 46.111 151.643 46.4262C151.829 46.7414 151.922 47.0978 151.922 47.4957C151.922 47.8935 151.829 48.25 151.643 48.5652C151.462 48.8803 151.21 49.1283 150.885 49.3091C150.561 49.4848 150.197 49.5726 149.793 49.5726ZM149.793 49.0844C150.091 49.0844 150.356 49.0198 150.59 48.8906C150.83 48.7563 151.016 48.5677 151.149 48.3249C151.282 48.0821 151.348 47.8057 151.348 47.4957C151.348 47.1857 151.282 46.9093 151.149 46.6664C151.016 46.4236 150.83 46.2376 150.59 46.1084C150.356 45.9741 150.091 45.9069 149.793 45.9069C149.495 45.9069 149.227 45.9741 148.987 46.1084C148.753 46.2376 148.567 46.4236 148.429 46.6664C148.296 46.9093 148.23 47.1857 148.23 47.4957C148.23 47.8057 148.296 48.0821 148.429 48.3249C148.567 48.5677 148.753 48.7563 148.987 48.8906C149.227 49.0198 149.495 49.0844 149.793 49.0844Z" fill="currentColor"/>
<path d="M155.608 49.5339L154.276 47.8289L152.936 49.5339H152.298L153.957 47.4414L152.378 45.4575H153.016L154.276 47.0539L155.536 45.4575H156.158L154.579 47.4414L156.254 49.5339H155.608Z" fill="currentColor"/>
<path d="M158.765 49.5726C158.361 49.5726 157.996 49.4848 157.672 49.3091C157.348 49.1283 157.093 48.8803 156.906 48.5652C156.72 48.25 156.627 47.8935 156.627 47.4957C156.627 47.0978 156.72 46.7414 156.906 46.4262C157.093 46.111 157.348 45.8656 157.672 45.69C157.996 45.5143 158.361 45.4265 158.765 45.4265C159.169 45.4265 159.533 45.5143 159.857 45.69C160.181 45.8656 160.434 46.111 160.615 46.4262C160.801 46.7414 160.894 47.0978 160.894 47.4957C160.894 47.8935 160.801 48.25 160.615 48.5652C160.434 48.8803 160.181 49.1283 159.857 49.3091C159.533 49.4848 159.169 49.5726 158.765 49.5726ZM158.765 49.0844C159.062 49.0844 159.328 49.0198 159.562 48.8906C159.801 48.7563 159.987 48.5677 160.12 48.3249C160.253 48.0821 160.32 47.8057 160.32 47.4957C160.32 47.1857 160.253 46.9093 160.12 46.6664C159.987 46.4236 159.801 46.2376 159.562 46.1084C159.328 45.9741 159.062 45.9069 158.765 45.9069C158.467 45.9069 158.198 45.9741 157.959 46.1084C157.725 46.2376 157.539 46.4236 157.401 46.6664C157.268 46.9093 157.202 47.1857 157.202 47.4957C157.202 47.8057 157.268 48.0821 157.401 48.3249C157.539 48.5677 157.725 48.7563 157.959 48.8906C158.198 49.0198 158.467 49.0844 158.765 49.0844Z" fill="currentColor"/>
<path d="M166.172 49.0534V50.5181H165.637V49.5339H161.881V50.5181H161.347V49.0534H161.586C161.868 49.0379 162.059 48.8364 162.16 48.4489C162.261 48.0614 162.331 47.5189 162.368 46.8214L162.424 45.4575H165.518V49.0534H166.172ZM162.886 46.8524C162.86 47.4311 162.809 47.909 162.735 48.2862C162.66 48.6581 162.527 48.9139 162.336 49.0534H164.952V45.9457H162.934L162.886 46.8524Z" fill="currentColor"/>
<path d="M169.006 49.5726C168.602 49.5726 168.238 49.4848 167.913 49.3091C167.589 49.1283 167.334 48.8803 167.148 48.5652C166.962 48.25 166.868 47.8935 166.868 47.4957C166.868 47.0978 166.962 46.7414 167.148 46.4262C167.334 46.111 167.589 45.8656 167.913 45.69C168.238 45.5143 168.602 45.4265 169.006 45.4265C169.41 45.4265 169.774 45.5143 170.098 45.69C170.423 45.8656 170.675 46.111 170.856 46.4262C171.042 46.7414 171.135 47.0978 171.135 47.4957C171.135 47.8935 171.042 48.25 170.856 48.5652C170.675 48.8803 170.423 49.1283 170.098 49.3091C169.774 49.4848 169.41 49.5726 169.006 49.5726ZM169.006 49.0844C169.303 49.0844 169.569 49.0198 169.803 48.8906C170.042 48.7563 170.229 48.5677 170.361 48.3249C170.494 48.0821 170.561 47.8057 170.561 47.4957C170.561 47.1857 170.494 46.9093 170.361 46.6664C170.229 46.4236 170.042 46.2376 169.803 46.1084C169.569 45.9741 169.303 45.9069 169.006 45.9069C168.708 45.9069 168.44 45.9741 168.2 46.1084C167.966 46.2376 167.78 46.4236 167.642 46.6664C167.509 46.9093 167.443 47.1857 167.443 47.4957C167.443 47.8057 167.509 48.0821 167.642 48.3249C167.78 48.5677 167.966 48.7563 168.2 48.8906C168.44 49.0198 168.708 49.0844 169.006 49.0844Z" fill="currentColor"/>
<path d="M175.017 47.4259C175.586 47.5551 175.87 47.8883 175.87 48.4257C175.87 48.7822 175.734 49.056 175.463 49.2471C175.192 49.4383 174.788 49.5339 174.251 49.5339H172.345V45.4575H174.195C174.674 45.4575 175.049 45.5479 175.32 45.7287C175.591 45.9095 175.727 46.1679 175.727 46.5037C175.727 46.7259 175.663 46.917 175.535 47.0772C175.413 47.2322 175.24 47.3484 175.017 47.4259ZM172.895 47.2709H174.155C174.48 47.2709 174.727 47.2115 174.897 47.0927C175.073 46.9738 175.16 46.8008 175.16 46.5734C175.16 46.3461 175.073 46.1756 174.897 46.0619C174.727 45.9483 174.48 45.8914 174.155 45.8914H172.895V47.2709ZM174.227 49.0999C174.589 49.0999 174.86 49.0431 175.041 48.9294C175.221 48.8157 175.312 48.6375 175.312 48.3947C175.312 48.1518 175.229 47.9736 175.065 47.8599C174.9 47.7411 174.639 47.6817 174.283 47.6817H172.895V49.0999H174.227Z" fill="currentColor"/>
<path d="M181.956 47.4259C182.525 47.5551 182.809 47.8883 182.809 48.4257C182.809 48.7822 182.674 49.056 182.402 49.2471C182.131 49.4383 181.727 49.5339 181.19 49.5339H179.284V45.4575H181.134C181.613 45.4575 181.988 45.5479 182.259 45.7287C182.53 45.9095 182.666 46.1679 182.666 46.5037C182.666 46.7259 182.602 46.917 182.474 47.0772C182.352 47.2322 182.179 47.3484 181.956 47.4259ZM179.835 47.2709H181.095C181.419 47.2709 181.666 47.2115 181.836 47.0927C182.012 46.9738 182.099 46.8008 182.099 46.5734C182.099 46.3461 182.012 46.1756 181.836 46.0619C181.666 45.9483 181.419 45.8914 181.095 45.8914H179.835V47.2709ZM181.166 49.0999C181.528 49.0999 181.799 49.0431 181.98 48.9294C182.161 48.8157 182.251 48.6375 182.251 48.3947C182.251 48.1518 182.168 47.9736 182.004 47.8599C181.839 47.7411 181.578 47.6817 181.222 47.6817H179.835V49.0999H181.166Z" fill="currentColor"/>
<path d="M189.19 45.9457H186.79V49.5339H186.223V45.4575H189.19V45.9457Z" fill="currentColor"/>
<path d="M191.544 49.5726C191.14 49.5726 190.776 49.4848 190.452 49.3091C190.127 49.1283 189.872 48.8803 189.686 48.5652C189.5 48.25 189.407 47.8935 189.407 47.4957C189.407 47.0978 189.5 46.7414 189.686 46.4262C189.872 46.111 190.127 45.8656 190.452 45.69C190.776 45.5143 191.14 45.4265 191.544 45.4265C191.948 45.4265 192.312 45.5143 192.637 45.69C192.961 45.8656 193.214 46.111 193.394 46.4262C193.58 46.7414 193.673 47.0978 193.673 47.4957C193.673 47.8935 193.58 48.25 193.394 48.5652C193.214 48.8803 192.961 49.1283 192.637 49.3091C192.312 49.4848 191.948 49.5726 191.544 49.5726ZM191.544 49.0844C191.842 49.0844 192.108 49.0198 192.342 48.8906C192.581 48.7563 192.767 48.5677 192.9 48.3249C193.033 48.0821 193.099 47.8057 193.099 47.4957C193.099 47.1857 193.033 46.9093 192.9 46.6664C192.767 46.4236 192.581 46.2376 192.342 46.1084C192.108 45.9741 191.842 45.9069 191.544 45.9069C191.246 45.9069 190.978 45.9741 190.739 46.1084C190.505 46.2376 190.319 46.4236 190.18 46.6664C190.047 46.9093 189.981 47.1857 189.981 47.4957C189.981 47.8057 190.047 48.0821 190.18 48.3249C190.319 48.5677 190.505 48.7563 190.739 48.8906C190.978 49.0198 191.246 49.0844 191.544 49.0844Z" fill="currentColor"/>
<path d="M197.045 45.4265C197.438 45.4265 197.794 45.5143 198.113 45.69C198.432 45.8605 198.682 46.1033 198.863 46.4184C199.044 46.7336 199.134 47.0927 199.134 47.4957C199.134 47.9038 199.044 48.2655 198.863 48.5807C198.682 48.8958 198.432 49.1412 198.113 49.3169C197.8 49.4874 197.443 49.5726 197.045 49.5726C196.704 49.5726 196.396 49.5055 196.12 49.3711C195.848 49.2316 195.625 49.0301 195.45 48.7667V51.0374H194.884V45.4575H195.426V46.2634C195.596 45.9948 195.819 45.7881 196.096 45.6435C196.377 45.4988 196.694 45.4265 197.045 45.4265ZM197.005 49.0844C197.297 49.0844 197.563 49.0198 197.802 48.8906C198.042 48.7563 198.228 48.5677 198.361 48.3249C198.499 48.0821 198.568 47.8057 198.568 47.4957C198.568 47.1857 198.499 46.9118 198.361 46.6742C198.228 46.4314 198.042 46.2428 197.802 46.1084C197.563 45.9741 197.297 45.9069 197.005 45.9069C196.707 45.9069 196.439 45.9741 196.199 46.1084C195.965 46.2428 195.779 46.4314 195.641 46.6742C195.508 46.9118 195.442 47.1857 195.442 47.4957C195.442 47.8057 195.508 48.0821 195.641 48.3249C195.779 48.5677 195.965 48.7563 196.199 48.8906C196.439 49.0198 196.707 49.0844 197.005 49.0844Z" fill="currentColor"/>
<path d="M202.113 46.8989C202.639 46.9041 203.041 47.0178 203.317 47.2399C203.594 47.4621 203.732 47.7824 203.732 48.2009C203.732 48.6349 203.583 48.9681 203.285 49.2006C202.988 49.4331 202.562 49.5468 202.009 49.5416L200.351 49.5339V45.4575H200.917V46.8834L202.113 46.8989ZM204.434 45.4575H205V49.5339H204.434V45.4575ZM201.978 49.1231C202.366 49.1283 202.658 49.0534 202.855 48.8984C203.057 48.7382 203.158 48.5057 203.158 48.2009C203.158 47.9012 203.059 47.6791 202.863 47.5344C202.666 47.3898 202.371 47.3148 201.978 47.3097L200.917 47.2942V49.1076L201.978 49.1231Z" fill="currentColor"/>
</g>

</g></symbol><symbol id="map" viewBox="0 0 25 25"><g fill="none">
<g clip-path="url(#clip0_248_2190)">
<path d="M24.1704 22.2803V6.70123C24.1823 6.44571 23.9848 6.22897 23.7293 6.2171C23.6748 6.21456 23.6204 6.22168 23.5684 6.23812V6.26127L21.4844 6.91426C21.7026 6.33016 21.8321 5.71665 21.8688 5.09423C21.8688 2.28077 19.588 0 16.7745 0C13.9611 0 11.6803 2.28077 11.6803 5.09423C11.7128 5.68754 11.833 6.27279 12.0369 6.8309L8.59135 5.59902C8.55135 5.5941 8.51094 5.5941 8.47094 5.59902H8.43389C8.37837 5.60001 8.32344 5.61101 8.2718 5.63144L1.12598 8.41011C0.961171 8.47281 0.846262 8.62361 0.82959 8.79913V16.246V24.3967C0.830342 24.6525 1.03828 24.8592 1.29409 24.8585C1.35065 24.8583 1.40669 24.8478 1.45942 24.8274L8.44315 22.1229L16.4087 24.9756C16.5048 25.0081 16.6089 25.0081 16.7051 24.9756L23.8463 22.7434C24.0469 22.6806 24.18 22.4904 24.1704 22.2803ZM16.7745 0.926224C19.0765 0.926224 20.9425 2.79228 20.9425 5.09423C20.9425 6.905 18.2241 11.9066 16.7745 14.3565C15.325 11.8881 12.6065 6.88184 12.6065 5.09423C12.6065 2.79228 14.4726 0.926224 16.7745 0.926224ZM23.2581 21.9608L17.0246 23.9105V20.3769C17.0246 20.1212 16.8173 19.9138 16.5615 19.9138C16.3057 19.9138 16.0984 20.1212 16.0984 20.3769V23.8781L8.90163 21.3032V18.3392C8.90163 18.0835 8.69427 17.8761 8.43852 17.8761C8.18277 17.8761 7.97541 18.0835 7.97541 18.3392V21.3032L1.75581 23.7252V16.5655L4.04359 15.6393C4.2884 15.5652 4.42675 15.3067 4.35266 15.0618C4.27856 14.817 4.02003 14.6787 3.77521 14.7528C3.74963 14.7605 3.72473 14.7705 3.70083 14.7825L1.75576 15.5652V9.11868L7.97535 6.71049V8.09983C7.97535 8.35558 8.18271 8.56294 8.43846 8.56294C8.69421 8.56294 8.90157 8.35558 8.90157 8.09983V6.69197L12.4536 7.96553C13.5928 10.5687 14.9032 13.0936 16.3762 15.5235C16.5088 15.7422 16.7936 15.8119 17.0123 15.6793C17.076 15.6407 17.1295 15.5872 17.1681 15.5235C18.6339 13.1079 19.9396 10.5985 21.0768 8.01184L23.2442 7.33106L23.258 14.9215L20.9101 15.4911C20.6543 15.5218 20.4718 15.754 20.5025 16.0098C20.5332 16.2655 20.7655 16.448 21.0212 16.4173C21.0581 16.4218 21.0954 16.4218 21.1324 16.4173L23.258 15.8986V21.9608H23.2581Z" fill="#2D383F"/>
<path d="M16.7556 2.40332C15.2696 2.40332 14.0649 3.60799 14.0649 5.094C14.0649 6.58001 15.2696 7.78468 16.7556 7.78468C18.2406 7.78213 19.4438 6.57897 19.4463 5.094C19.4463 3.60799 18.2416 2.40332 16.7556 2.40332ZM16.7556 6.85846C15.7895 6.84584 15.0121 6.06028 15.0097 5.094H14.9912C14.9912 4.1195 15.7811 3.32954 16.7556 3.32954C17.7301 3.32954 18.5201 4.1195 18.5201 5.094C18.5201 6.0685 17.7301 6.85846 16.7556 6.85846Z" fill="#2D383F"/>
<path d="M10.6981 13.9672V13.9811L8.45661 13.0132C8.34251 12.9656 8.21411 12.9656 8.10001 13.0132L6.20589 13.7774C5.96802 13.8733 5.85294 14.1439 5.94886 14.3817C6.04478 14.6196 6.31536 14.7347 6.55322 14.6387L8.26673 13.9487L10.3276 14.8194C10.3861 14.8443 10.4492 14.8569 10.5128 14.8564C10.7686 14.8585 10.9776 14.6529 10.9797 14.3971C10.9812 14.2101 10.8701 14.0405 10.6981 13.9672Z" fill="#2D383F"/>
<path d="M18.27 16.6161C18.201 16.393 17.9766 16.2562 17.7467 16.2969L17.7513 16.2599L16.6028 16.5377L14.6578 15.6949C14.4224 15.5926 14.1487 15.7004 14.0465 15.9357C13.9442 16.171 14.052 16.4447 14.2873 16.547L16.3713 17.4732C16.4298 17.4982 16.4929 17.5108 16.5565 17.5103H16.6677L17.9644 17.1954C18.2087 17.1198 18.3455 16.8604 18.27 16.6161Z" fill="#2D383F"/>
</g>

</g></symbol><symbol id="menu" viewBox="0 0 26 26"><g fill="none">
<path d="M0 3.54541H26V5.71534H0V3.54541Z" fill="white"/>
<path d="M0 20.2846H26V22.4545H0V20.2846Z" fill="white"/>
<path d="M0 11.915H16.64V14.0849H0V11.915Z" fill="white"/>
</g></symbol><symbol id="mountain" viewBox="0 0 25 25"><g fill="none">
<g clip-path="url(#clip0_248_2161)">
<path d="M23.4153 24.1879L19.3747 14.7901L15.5583 5.9074C15.4551 5.665 15.1749 5.55224 14.9325 5.65546C14.8192 5.70376 14.7289 5.79404 14.6806 5.9074L11.2744 13.8121L9.93871 16.9177L7.00963 10.1579C6.90634 9.91551 6.62614 9.80274 6.3838 9.90596C6.27044 9.95427 6.18016 10.0445 6.13186 10.1579L3.37928 16.517L0.0399368 24.1831C-0.0654315 24.4246 0.0448861 24.7058 0.286333 24.8112C0.347037 24.8377 0.412572 24.8513 0.478822 24.851H22.9765C23.2399 24.8508 23.4533 24.6371 23.4531 24.3736C23.4531 24.3098 23.4402 24.2467 23.4153 24.1879ZM15.1147 7.29561L18.2107 14.4943H17.1231L15.1576 12.3237C14.9804 12.1287 14.6787 12.1143 14.4837 12.2916C14.4531 12.3194 14.4263 12.351 14.4039 12.3857L13.6692 13.5211H12.4384L15.1147 7.29561ZM6.57074 11.5318L9.018 17.1896H7.68226C7.52007 17.1899 7.36914 17.2726 7.28154 17.4091L6.80449 18.1676L5.57371 16.4311C5.48474 16.3028 5.33864 16.2262 5.18253 16.226H4.54805L6.57074 11.5318ZM1.22779 23.8969L4.13302 17.1801H4.93446L6.42285 19.3029C6.51182 19.4312 6.65792 19.5078 6.81403 19.5081C6.97283 19.5046 7.11947 19.4223 7.20522 19.2886L7.93987 18.1532H9.42826L11.9137 23.8778L1.22779 23.8969ZM12.9584 23.8969L10.4587 18.1246L12.0282 14.4752H13.9364C14.0986 14.4749 14.2495 14.3923 14.3371 14.2558L14.8666 13.44L16.5554 15.3053C16.6455 15.4052 16.7738 15.4624 16.9084 15.4627H18.6162L22.2466 23.9112L12.9584 23.8969Z" fill="#2D383F"/>
<path d="M7.61096 2.08189C7.16093 0.922602 5.85626 0.347698 4.69703 0.797794C3.83387 1.13286 3.26385 1.96221 3.26028 2.8881C3.25557 2.97075 3.25557 3.05352 3.26028 3.13617C2.13241 3.65997 1.64278 4.99893 2.16658 6.12679C2.52932 6.90778 3.30572 7.41351 4.16667 7.42961L4.19052 7.44869H7.52987C9.01188 7.47112 10.2314 6.28786 10.2538 4.80584C10.2762 3.32383 9.09298 2.10431 7.61096 2.08189ZM7.55849 6.50891H4.21914C3.50512 6.58267 2.86653 6.0637 2.79277 5.34968C2.719 4.63565 3.23797 3.99706 3.952 3.9233C4.21026 3.87124 4.37747 3.61972 4.32541 3.3614C4.32141 3.34166 4.31622 3.32216 4.30978 3.30314C4.26321 3.16968 4.23906 3.02943 4.23823 2.8881C4.23417 2.17146 4.81176 1.58725 5.52841 1.58314C6.16234 1.5795 6.70606 2.03448 6.81429 2.65912C6.85812 2.90993 7.09122 3.08208 7.34382 3.0503C7.41531 3.04559 7.48699 3.04559 7.55849 3.0503C8.51354 3.0503 9.28779 3.82455 9.28779 4.7796C9.28779 5.73466 8.51354 6.50891 7.55849 6.50891Z" fill="#2D383F"/>
<path d="M23.6966 2.63997C23.7013 2.55733 23.7013 2.47456 23.6966 2.39191C23.6917 1.14836 22.6797 0.144172 21.4362 0.148943C20.517 0.152521 19.6936 0.714604 19.3539 1.56727C17.8794 1.59816 16.7046 2.81392 16.7269 4.29057C16.7493 5.77258 17.9688 6.95584 19.4508 6.93342H22.7902C24.0335 6.91016 25.0226 5.88343 24.9994 4.64006C24.9833 3.77911 24.4776 3.00271 23.6966 2.63997ZM24.0559 4.94758C23.9296 5.54008 23.4102 5.96632 22.8045 5.97455H19.4651C18.5101 5.97455 17.7358 5.2003 17.7358 4.24525C17.7358 3.29019 18.5101 2.51594 19.4651 2.51594C19.5366 2.51123 19.6083 2.51123 19.6798 2.51594C19.9212 2.54099 20.1429 2.38088 20.195 2.14384C20.3146 1.43727 20.9843 0.961417 21.6909 1.08098C22.3975 1.20054 22.8734 1.87026 22.7538 2.57688C22.7416 2.64862 22.7235 2.71922 22.6995 2.78792C22.6153 3.03754 22.7494 3.3082 22.9991 3.39246C23.0181 3.3989 23.0376 3.40415 23.0573 3.40808C23.7582 3.5574 24.2053 4.24668 24.0559 4.94758Z" fill="#2D383F"/>
</g>

</g></symbol><symbol id="ok" viewBox="0 0 9 16"><g fill="none">
<path d="M4.5 2.42035C5.41587 2.42035 6.1607 3.18736 6.1607 4.1305C6.1607 5.0708 5.41587 5.83781 4.5 5.83781C3.58413 5.83781 2.8393 5.0708 2.8393 4.1305C2.8393 3.18736 3.58413 2.42035 4.5 2.42035ZM4.5 8.25816C6.71243 8.25816 8.51106 6.40597 8.51106 4.1305C8.51106 1.85219 6.71243 0 4.5 0C2.28757 0 0.491701 1.85219 0.491701 4.1305C0.491701 6.40597 2.28757 8.25816 4.5 8.25816ZM6.12208 11.6273C6.93863 11.4342 7.72485 11.1018 8.45037 10.6331C8.99934 10.278 9.16486 9.53083 8.82003 8.96551C8.47244 8.39735 7.74967 8.22691 7.19795 8.58485C5.55656 9.6473 3.44344 9.6473 1.79929 8.58485C1.25033 8.22691 0.524805 8.39735 0.179975 8.96551C-0.164855 9.53083 0.000663014 10.278 0.549632 10.6331C1.27515 11.1018 2.06136 11.4342 2.87792 11.6273L0.63515 13.934C0.177216 14.4056 0.177216 15.1726 0.63515 15.6442C0.866875 15.88 1.16481 15.9993 1.4655 15.9993C1.76619 15.9993 2.06688 15.88 2.29861 15.6442L4.5 13.3772L6.70415 15.6442C7.16208 16.1186 7.90416 16.1186 8.36485 15.6442C8.82278 15.1726 8.82278 14.4056 8.36485 13.934L6.12208 11.6273Z" fill="currentColor"/>
</g></symbol><symbol id="path" viewBox="0 0 22 22"><g fill="none">
<g clip-path="url(#clip0_131_2748)">
<path d="M18.1429 8.76743H12.7857C11.1091 8.76743 9.75 10.1366 9.75 11.8256C9.75 13.5145 11.1091 14.8837 12.7857 14.8837H15.1071C16.7837 14.8837 18.1429 16.2529 18.1429 17.9419C18.1429 19.6308 16.7837 21 15.1071 21H3.85714M6.71428 15.9302C6.71428 14.3406 5.4351 13.0519 3.85714 13.0519C2.27919 13.0519 1 14.3406 1 15.9302V16.0384C1 16.6695 1.1985 17.2845 1.56701 17.7949L3.8515 20.9593C3.85429 20.9632 3.86 20.9632 3.86279 20.9593L6.14727 17.7949C6.51578 17.2845 6.71428 16.6695 6.71428 16.0384V15.9302ZM4.40947 14.7454L4.42662 14.7535C4.77242 14.9183 5.02453 15.2332 5.11112 15.6086C5.19868 15.9881 5.10458 16.3904 4.86077 16.6929C4.61964 16.9921 4.25485 17.1691 3.87232 17.1691H3.84197C3.45944 17.1691 3.09464 16.9921 2.85352 16.6929C2.60971 16.3904 2.51561 15.9881 2.60316 15.6086C2.68975 15.2332 2.94186 14.9183 3.28767 14.7535L3.30482 14.7454C3.65446 14.5788 4.05982 14.5788 4.40947 14.7454ZM21 3.89849C21 2.30887 19.7208 1 18.1429 1C16.5649 1 15.2857 2.30887 15.2857 3.89849C15.2857 4.52339 15.4857 5.1384 15.8561 5.63972L18.1372 8.72766C18.14 8.73147 18.1457 8.73147 18.1485 8.72766L20.4297 5.63972C20.8 5.1384 21 4.52339 21 3.89849ZM18.6875 2.65136L18.7262 2.66941C19.0631 2.82627 19.3099 3.13018 19.3957 3.4939C19.4838 3.86694 19.3925 4.25998 19.1492 4.55491L19.137 4.56971C18.8999 4.85725 18.548 5.02359 18.1769 5.02359H18.1088C17.7377 5.02359 17.3858 4.85725 17.1487 4.56971L17.1365 4.55491C16.8932 4.25998 16.8019 3.86694 16.89 3.4939C16.9758 3.13018 17.2226 2.82627 17.5595 2.66941L17.5983 2.65136C17.9438 2.49048 18.342 2.49048 18.6875 2.65136Z" stroke="#0266C1" stroke-linecap="round"/>
</g>

</g></symbol><symbol id="pine-tree" viewBox="0 0 23 23"><g fill="none">
<g clip-path="url(#clip0_248_2173)">
<path d="M22.6246 16.6365L18.1102 11.472H20.2913C20.546 11.4714 20.7519 11.2644 20.7514 11.0098C20.7511 10.9084 20.7175 10.8099 20.6556 10.7296L17.0312 5.96623H18.8757C19.1304 5.96589 19.3365 5.75919 19.3363 5.50454C19.3361 5.39271 19.2953 5.28475 19.2215 5.20077L14.7856 0.156126C14.6172 -0.0348923 14.3257 -0.0531642 14.1347 0.115317C14.1202 0.128056 14.1066 0.141716 14.0939 0.156126L9.65332 5.19616C9.4827 5.38522 9.49763 5.67682 9.68663 5.84744C9.77229 5.92473 9.88376 5.9671 9.99916 5.96623H11.8667L10.7508 7.42337L7.76273 4.02492C7.5943 3.8339 7.30288 3.81563 7.11186 3.98411C7.09739 3.99685 7.08379 4.01051 7.07105 4.02492L3.27604 8.33639C3.10796 8.52769 3.12681 8.81906 3.31811 8.98714C3.40209 9.06092 3.51005 9.10167 3.62188 9.10184H5.08362L2.04946 13.0721C1.89919 13.2777 1.94398 13.5662 2.14958 13.7165C2.22636 13.7726 2.31864 13.8036 2.41374 13.8053H4.11988L0.370984 18.1167C0.205442 18.3102 0.228094 18.6013 0.421649 18.7669C0.503959 18.8373 0.608518 18.8765 0.716823 18.8776H5.8168V22.1054C5.8168 22.5994 6.21734 23 6.71138 23H8.11779C8.61182 23.0025 9.01444 22.6041 9.01697 22.11C9.01697 22.1085 9.01697 22.107 9.01697 22.1054V18.8776H12.8443V22.1054C12.8443 22.5994 13.2448 23 13.7388 23H15.1453C15.6393 23 16.0398 22.5994 16.0398 22.1054V17.402H22.2788C22.5334 17.4017 22.7396 17.195 22.7393 16.9403C22.7391 16.8285 22.6984 16.7205 22.6246 16.6365ZM8.09473 22.0777L6.73904 22.1054L6.71138 18.8776H8.09473V22.0777ZM12.8443 17.9553H1.73129L5.50324 13.6531C5.67397 13.4642 5.65916 13.1726 5.47021 13.0018C5.38214 12.9223 5.2668 12.8797 5.14818 12.883H3.34981L6.38398 8.91279C6.53932 8.71099 6.50168 8.42146 6.29988 8.26612C6.21953 8.20428 6.12109 8.17061 6.0197 8.17038H4.63634L7.40306 5.02094L10.1698 8.16116L8.22385 10.7342C8.06851 10.936 8.10615 11.2255 8.30795 11.3809C8.3883 11.4427 8.48674 11.4764 8.58813 11.4766H10.7738L6.25948 16.6411C6.0914 16.8325 6.11025 17.1238 6.30156 17.2919C6.38554 17.3657 6.4935 17.4064 6.60532 17.4066H12.8443V17.9553ZM15.1176 22.0685L13.7665 22.1054L13.7388 17.402H15.1222L15.1176 22.0685ZM15.1453 16.4798H7.61978L12.1341 11.3152C12.3022 11.1239 12.2834 10.8325 12.0921 10.6645C12.0081 10.5907 11.9001 10.5499 11.7883 10.5498H9.52421L13.167 5.78178C13.3199 5.57808 13.2786 5.28902 13.0749 5.13622C12.9963 5.07731 12.901 5.04497 12.8028 5.04399H11.0367L14.4582 1.16137L17.8612 5.04399H16.0813C15.8267 5.04463 15.6207 5.25155 15.6213 5.50621C15.6215 5.6076 15.6552 5.70605 15.717 5.7864L19.3368 10.5498H17.0912C16.8365 10.5501 16.6303 10.7568 16.6306 11.0115C16.6307 11.1233 16.6716 11.2312 16.7453 11.3152L21.2597 16.4798H15.1453Z" fill="#2D383F"/>
</g>

</g></symbol><symbol id="reddit" viewBox="0 0 14 15"><g fill="none">
<path d="M8.36171 0C7.91277 0 7.49149 0.244007 7.22128 0.59589C6.95106 0.947774 6.80213 1.37671 6.69362 1.82877C6.52128 2.55565 6.46808 3.36216 6.45532 4.08904C5.19361 4.17894 4.05105 4.57962 3.10211 5.19863C2.717 4.85188 2.25317 4.65925 1.80849 4.66438C1.3021 4.66952 0.821252 4.90325 0.463803 5.38356C-0.219178 6.30051 -0.140455 7.80051 0.651038 8.69178C0.602102 8.96661 0.565931 9.24914 0.565931 9.53425C0.565931 12.5548 3.44679 15 7 15C10.5532 15 13.4341 12.5522 13.4341 9.53425C13.4341 9.24914 13.3979 8.96661 13.349 8.69178C14.1405 7.80051 14.2192 6.30051 13.5362 5.38356C13.1788 4.90325 12.6979 4.66952 12.1915 4.66438C11.7468 4.65925 11.283 4.85188 10.8979 5.19863C9.9532 4.58219 8.81703 4.18151 7.5617 4.08904C7.57873 3.41866 7.62341 2.7226 7.74894 2.19863C7.82766 1.86986 7.92128 1.63099 8.02128 1.5C8.12128 1.36901 8.19362 1.31507 8.36171 1.31507C8.72554 1.31507 8.77235 1.44092 8.9915 1.74658C9.10214 1.90068 9.2298 2.09332 9.43405 2.28082C9.63831 2.46832 9.94044 2.63014 10.2681 2.63014V1.31507C10.1766 1.31507 10.1596 1.3125 10.0979 1.25342C10.0362 1.19435 9.95108 1.05822 9.82554 0.883562C9.57448 0.531678 9.08724 0 8.36171 0ZM11.9021 0.123288C11.0553 0.123288 10.3702 0.950343 10.3702 1.9726C10.3702 2.99486 11.0553 3.82192 11.9021 3.82192C12.749 3.82192 13.4341 2.99486 13.4341 1.9726C13.4341 0.950343 12.749 0.123288 11.9021 0.123288ZM11.9021 0.780822C12.4468 0.780822 12.8894 1.31507 12.8894 1.9726C12.8894 2.63014 12.4468 3.16438 11.9021 3.16438C11.3575 3.16438 10.9149 2.63014 10.9149 1.9726C10.9149 1.31507 11.3575 0.780822 11.9021 0.780822ZM7 5.11644C10.0149 5.11644 12.566 7.14298 12.566 9.53425C12.566 11.9281 10.0149 13.9521 7 13.9521C3.98509 13.9521 1.43402 11.9281 1.43402 9.53425C1.43402 7.14298 3.98509 5.11644 7 5.11644ZM1.82551 5.71233C1.97658 5.7149 2.13402 5.75599 2.28509 5.83562C1.73828 6.33647 1.30423 6.91182 1.00849 7.56164C0.80423 7.05308 0.85955 6.41866 1.11061 6.08219C1.29359 5.83562 1.54679 5.70976 1.82551 5.71233ZM12.1745 5.71233C12.4532 5.70976 12.7064 5.83562 12.8894 6.08219C13.1405 6.41866 13.1958 7.05308 12.9915 7.56164C12.6958 6.91182 12.2617 6.33647 11.7149 5.83562C11.866 5.75599 12.0234 5.7149 12.1745 5.71233ZM4.82127 7.35616C4.27658 7.35616 3.83403 7.89041 3.83403 8.54795C3.83403 9.20548 4.27658 9.73973 4.82127 9.73973C5.36595 9.73973 5.80851 9.20548 5.80851 8.54795C5.80851 7.89041 5.36595 7.35616 4.82127 7.35616ZM9.17873 7.35616C8.63405 7.35616 8.19149 7.89041 8.19149 8.54795C8.19149 9.20548 8.63405 9.73973 9.17873 9.73973C9.72342 9.73973 10.166 9.20548 10.166 8.54795C10.166 7.89041 9.72342 7.35616 9.17873 7.35616ZM4.29361 11.4041C4.64042 12.2697 5.71276 13.1096 7 13.1096C8.28724 13.1096 9.37661 12.2697 9.72342 11.4041C9.09363 11.8947 8.10001 12.226 7 12.226C5.9 12.226 4.9234 11.8947 4.29361 11.4041Z" fill="currentColor"/>
</g></symbol><symbol id="stars-2-5" viewBox="0 0 79 14"><g fill="none">
<g clip-path="url(#clip0_248_2488)">
<path d="M7.5 11.0412L12.135 13.6501L10.9087 8.72981L15 5.4209L9.60677 4.98898L7.5 0.350098L5.39327 4.98898L0 5.4209L4.09126 8.72981L2.865 13.6501L7.5 11.0412Z" fill="white"/>
</g>
<g clip-path="url(#clip1_248_2488)">
<path d="M23.5 11.0412L28.135 13.6501L26.9087 8.72981L31 5.4209L25.6068 4.98898L23.5 0.350098L21.3933 4.98898L16 5.4209L20.0913 8.72981L18.865 13.6501L23.5 11.0412Z" fill="white"/>
</g>
<g clip-path="url(#clip2_248_2488)">
<path d="M39.7453 10.6055L39.5 10.4674L39.2547 10.6055L35.6307 12.6453L36.5764 8.85073L36.6535 8.54147L36.4057 8.34105L33.2878 5.81937L37.4332 5.48739L37.7267 5.46388L37.8485 5.19573L39.5 1.55927L41.1515 5.19574L41.2733 5.46388L41.5669 5.48739L45.7122 5.81937L42.5943 8.34105L42.3465 8.54147L42.4236 8.85073L43.3693 12.6453L39.7453 10.6055Z" stroke="white"/>
</g>
<g clip-path="url(#clip3_248_2488)">
<path d="M55.7453 10.6055L55.5 10.4674L55.2547 10.6055L51.6307 12.6453L52.5764 8.85073L52.6535 8.54147L52.4057 8.34105L49.2878 5.81937L53.4332 5.48739L53.7267 5.46388L53.8485 5.19573L55.5 1.55927L57.1515 5.19574L57.2733 5.46388L57.5669 5.48739L61.7122 5.81937L58.5943 8.34105L58.3465 8.54147L58.4236 8.85073L59.3693 12.6453L55.7453 10.6055Z" stroke="white"/>
</g>
<g clip-path="url(#clip4_248_2488)">
<path d="M71.7453 10.6055L71.5 10.4674L71.2547 10.6055L67.6307 12.6453L68.5764 8.85073L68.6535 8.54147L68.4057 8.34105L65.2878 5.81937L69.4332 5.48739L69.7267 5.46388L69.8485 5.19573L71.5 1.55927L73.1515 5.19574L73.2733 5.46388L73.5669 5.48739L77.7122 5.81937L74.5943 8.34105L74.3465 8.54147L74.4236 8.85073L75.3693 12.6453L71.7453 10.6055Z" stroke="white"/>
</g>

</g></symbol><symbol id="stars-3-5" viewBox="0 0 79 14"><g fill="none">
<g clip-path="url(#clip0_248_2533)">
<path d="M7.5 11.0412L12.135 13.6501L10.9087 8.72981L15 5.4209L9.60676 4.98898L7.5 0.350098L5.39326 4.98898L0 5.4209L4.09126 8.72981L2.865 13.6501L7.5 11.0412Z" fill="white"/>
</g>
<g clip-path="url(#clip1_248_2533)">
<path d="M23.5 11.0412L28.135 13.6501L26.9087 8.72981L31 5.4209L25.6068 4.98898L23.5 0.350098L21.3933 4.98898L16 5.4209L20.0913 8.72981L18.865 13.6501L23.5 11.0412Z" fill="white"/>
</g>
<g clip-path="url(#clip2_248_2533)">
<path d="M39.5 11.0412L44.135 13.6501L42.9087 8.72981L47 5.4209L41.6068 4.98898L39.5 0.350098L37.3933 4.98898L32 5.4209L36.0913 8.72981L34.865 13.6501L39.5 11.0412Z" fill="white"/>
</g>
<g clip-path="url(#clip3_248_2533)">
<path d="M55.7453 10.6055L55.5 10.4674L55.2547 10.6055L51.6307 12.6453L52.5764 8.85073L52.6535 8.54147L52.4057 8.34105L49.2878 5.81937L53.4332 5.48739L53.7267 5.46388L53.8485 5.19573L55.5 1.55927L57.1515 5.19574L57.2733 5.46388L57.5669 5.48739L61.7122 5.81937L58.5943 8.34105L58.3465 8.54147L58.4236 8.85073L59.3693 12.6453L55.7453 10.6055Z" stroke="white"/>
</g>
<g clip-path="url(#clip4_248_2533)">
<path d="M71.7453 10.6055L71.5 10.4674L71.2547 10.6055L67.6307 12.6453L68.5764 8.85073L68.6535 8.54147L68.4057 8.34105L65.2878 5.81937L69.4332 5.48739L69.7267 5.46388L69.8485 5.19573L71.5 1.55927L73.1515 5.19574L73.2733 5.46388L73.5669 5.48739L77.7122 5.81937L74.5943 8.34105L74.3465 8.54147L74.4236 8.85073L75.3693 12.6453L71.7453 10.6055Z" stroke="white"/>
</g>

</g></symbol><symbol id="vk" viewBox="0 0 14 8"><g fill="none">
<path d="M13.9258 7.22488C13.9088 7.18829 13.893 7.15794 13.8783 7.13362C13.6354 6.69547 13.1712 6.15768 12.4861 5.52008L12.4716 5.50548L12.4643 5.49832L12.457 5.49098H12.4497C12.1387 5.19409 11.9418 4.99446 11.8593 4.89225C11.7084 4.69756 11.6746 4.50049 11.7571 4.30081C11.8154 4.14995 12.0342 3.83134 12.4131 3.34456C12.6125 3.08658 12.7703 2.87982 12.8869 2.72405C13.7276 1.60458 14.0921 0.889223 13.9803 0.5777L13.9369 0.504902C13.9077 0.461074 13.8324 0.42098 13.711 0.384414C13.5894 0.347925 13.434 0.341891 13.2444 0.366208L11.1452 0.380732C11.1111 0.368663 11.0626 0.369788 10.9993 0.384414C10.9361 0.39904 10.9045 0.406379 10.9045 0.406379L10.868 0.424662L10.839 0.446627C10.8147 0.461151 10.788 0.486696 10.7588 0.52321C10.7297 0.559597 10.7055 0.602299 10.6861 0.650959C10.4575 1.23987 10.1977 1.78741 9.90602 2.29354C9.7262 2.59535 9.56107 2.85691 9.41026 3.07837C9.25966 3.29976 9.1333 3.46287 9.03133 3.56743C8.92921 3.67209 8.83705 3.75593 8.75428 3.81927C8.67163 3.88264 8.60855 3.90941 8.56486 3.89961C8.52108 3.88982 8.47985 3.8801 8.44081 3.87039C8.37282 3.82656 8.31813 3.76696 8.2769 3.69152C8.23549 3.61609 8.20761 3.52115 8.19303 3.40677C8.17853 3.29232 8.16995 3.19387 8.1675 3.1111C8.16523 3.02843 8.16628 2.9115 8.17121 2.76064C8.17626 2.6097 8.17853 2.50757 8.17853 2.45402C8.17853 2.26905 8.18213 2.0683 8.18936 1.85171C8.19671 1.63513 8.20266 1.46353 8.20764 1.33711C8.21259 1.21056 8.21489 1.07668 8.21489 0.935531C8.21489 0.794383 8.20631 0.683689 8.18936 0.603347C8.17261 0.523107 8.1469 0.44522 8.11302 0.369711C8.07894 0.294279 8.02905 0.235928 7.96359 0.194504C7.898 0.153131 7.81646 0.120299 7.71941 0.0959046C7.46183 0.0375276 7.13384 0.00594826 6.73528 0.00103876C5.83147 -0.00867795 5.25072 0.0497757 4.99317 0.176323C4.89112 0.229791 4.79878 0.302845 4.71621 0.395256C4.62872 0.50237 4.61651 0.560824 4.67968 0.570438C4.97129 0.614189 5.17773 0.718848 5.29923 0.884314L5.34302 0.971994C5.37707 1.03526 5.41108 1.14725 5.44511 1.30783C5.47909 1.46842 5.50103 1.64605 5.51068 1.84064C5.53493 2.19599 5.53493 2.50018 5.51068 2.75322C5.48635 3.00637 5.46337 3.20344 5.44144 3.34459C5.41951 3.48573 5.38672 3.60011 5.34302 3.68769C5.29923 3.77529 5.2701 3.82884 5.2555 3.84827C5.24092 3.8677 5.22877 3.87995 5.21912 3.88476C5.15595 3.909 5.09026 3.92135 5.02227 3.92135C4.95418 3.92135 4.87162 3.88724 4.77445 3.81907C4.6773 3.7509 4.57648 3.65726 4.47198 3.538C4.36749 3.41871 4.24964 3.25202 4.11838 3.0379C3.98723 2.82377 3.85115 2.5707 3.71023 2.27869L3.59363 2.06691C3.52074 1.93068 3.42117 1.7323 3.29481 1.47197C3.16839 1.21154 3.05664 0.959618 2.95949 0.716265C2.92066 0.614061 2.86232 0.536251 2.78458 0.482707L2.7481 0.460742C2.72385 0.441308 2.68491 0.420673 2.6315 0.398682C2.57801 0.376717 2.5222 0.360966 2.46384 0.351275L0.466599 0.365799C0.262507 0.365799 0.124028 0.412107 0.0511125 0.504595L0.0219309 0.548345C0.00735285 0.572714 0 0.611632 0 0.665202C0 0.718746 0.014578 0.784462 0.0437596 0.862272C0.33532 1.54858 0.652386 2.21047 0.994957 2.84804C1.33753 3.48561 1.63522 3.99918 1.88784 4.38831C2.14052 4.77772 2.39807 5.14525 2.6605 5.4907C2.92293 5.83628 3.09665 6.05775 3.18164 6.15504C3.26673 6.25252 3.33357 6.32539 3.38216 6.37405L3.56442 6.54923C3.68104 6.66607 3.8523 6.80598 4.07828 6.969C4.3043 7.13211 4.55453 7.29269 4.82908 7.451C5.10369 7.60905 5.42316 7.73802 5.78766 7.83777C6.15211 7.93762 6.50683 7.97769 6.85188 7.95836H7.69016C7.86017 7.94366 7.98897 7.89012 8.07651 7.7977L8.10552 7.76111C8.12502 7.73207 8.14328 7.68693 8.16013 7.6262C8.17718 7.56537 8.18566 7.49835 8.18566 7.42545C8.18068 7.21621 8.19658 7.02763 8.23294 6.85973C8.26927 6.69189 8.31068 6.56534 8.35699 6.48012C8.40328 6.39497 8.45552 6.32312 8.51365 6.26487C8.57191 6.20649 8.61342 6.17113 8.63778 6.15895C8.66198 6.14671 8.68131 6.1384 8.69589 6.13341C8.81251 6.09449 8.94976 6.13218 9.10785 6.24666C9.26581 6.36104 9.41396 6.50226 9.55254 6.6701C9.69105 6.8381 9.85746 7.02658 10.0518 7.23582C10.2463 7.44514 10.4163 7.60074 10.562 7.70309L10.7078 7.7907C10.8051 7.84915 10.9314 7.9027 11.087 7.95136C11.2422 7.99999 11.3782 8.01216 11.495 7.98784L13.361 7.95869C13.5456 7.95869 13.6892 7.92809 13.7911 7.86736C13.8931 7.80653 13.9538 7.73951 13.9733 7.66661C13.9928 7.59363 13.9939 7.51083 13.977 7.41827C13.9597 7.32593 13.9427 7.26137 13.9258 7.22488Z" fill="currentColor"/>
</g></symbol></svg>