<svg xmlns="http://www.w3.org/2000/svg" xmlns:xlink="http://www.w3.org/1999/xlink"><defs>
<clipPath id="clip0_248_2488">
<rect width="15" height="14" fill="white"/>
</clipPath>
<clipPath id="clip1_248_2488">
<rect width="15" height="14" fill="white" transform="translate(16)"/>
</clipPath>
<clipPath id="clip2_248_2488">
<rect width="15" height="14" fill="white" transform="translate(32)"/>
</clipPath>
<clipPath id="clip3_248_2488">
<rect width="15" height="14" fill="white" transform="translate(48)"/>
</clipPath>
<clipPath id="clip4_248_2488">
<rect width="15" height="14" fill="white" transform="translate(64)"/>
</clipPath>

<clipPath id="clip0_248_2533">
<rect width="15" height="14" fill="white"/>
</clipPath>
<clipPath id="clip1_248_2533">
<rect width="15" height="14" fill="white" transform="translate(16)"/>
</clipPath>
<clipPath id="clip2_248_2533">
<rect width="15" height="14" fill="white" transform="translate(32)"/>
</clipPath>
<clipPath id="clip3_248_2533">
<rect width="15" height="14" fill="white" transform="translate(48)"/>
</clipPath>
<clipPath id="clip4_248_2533">
<rect width="15" height="14" fill="white" transform="translate(64)"/>
</clipPath>
</defs><symbol id="arrow-forward" viewBox="0 0 9 14"><g fill="none">
<path d="M1 13L7 7L0.999999 1" stroke="currentColor" stroke-width="2"/>
</g></symbol><symbol id="arrow-left" viewBox="0 0 14 9"><g fill="none">
<path d="M0.646446 4.85355C0.451184 4.65829 0.451184 4.34171 0.646446 4.14645L3.82843 0.964466C4.02369 0.769204 4.34027 0.769204 4.53553 0.964466C4.7308 1.15973 4.7308 1.47631 4.53553 1.67157L1.70711 4.5L4.53553 7.32843C4.7308 7.52369 4.7308 7.84027 4.53553 8.03553C4.34027 8.2308 4.02369 8.2308 3.82843 8.03553L0.646446 4.85355ZM14 5H1V4H14V5Z" fill="currentColor"/>
</g></symbol><symbol id="icon-close" viewBox="0 0 20 20"><g fill="none"><path d="M.293 18.291a1 1 0 101.414 1.414L10 11.413l8.292 8.292a1 1 0 101.414-1.414l-8.292-8.292 8.292-8.292A1 1 0 1018.291.293L9.999 8.585 1.707.293A1 1 0 10.293 1.707L8.585 10 .293 18.291z"/></g></symbol><symbol id="stars-2-5" viewBox="0 0 79 14"><g fill="none">
<g clip-path="url(#clip0_248_2488)">
<path d="M7.5 11.0412L12.135 13.6501L10.9087 8.72981L15 5.4209L9.60677 4.98898L7.5 0.350098L5.39327 4.98898L0 5.4209L4.09126 8.72981L2.865 13.6501L7.5 11.0412Z" fill="white"/>
</g>
<g clip-path="url(#clip1_248_2488)">
<path d="M23.5 11.0412L28.135 13.6501L26.9087 8.72981L31 5.4209L25.6068 4.98898L23.5 0.350098L21.3933 4.98898L16 5.4209L20.0913 8.72981L18.865 13.6501L23.5 11.0412Z" fill="white"/>
</g>
<g clip-path="url(#clip2_248_2488)">
<path d="M39.7453 10.6055L39.5 10.4674L39.2547 10.6055L35.6307 12.6453L36.5764 8.85073L36.6535 8.54147L36.4057 8.34105L33.2878 5.81937L37.4332 5.48739L37.7267 5.46388L37.8485 5.19573L39.5 1.55927L41.1515 5.19574L41.2733 5.46388L41.5669 5.48739L45.7122 5.81937L42.5943 8.34105L42.3465 8.54147L42.4236 8.85073L43.3693 12.6453L39.7453 10.6055Z" stroke="white"/>
</g>
<g clip-path="url(#clip3_248_2488)">
<path d="M55.7453 10.6055L55.5 10.4674L55.2547 10.6055L51.6307 12.6453L52.5764 8.85073L52.6535 8.54147L52.4057 8.34105L49.2878 5.81937L53.4332 5.48739L53.7267 5.46388L53.8485 5.19573L55.5 1.55927L57.1515 5.19574L57.2733 5.46388L57.5669 5.48739L61.7122 5.81937L58.5943 8.34105L58.3465 8.54147L58.4236 8.85073L59.3693 12.6453L55.7453 10.6055Z" stroke="white"/>
</g>
<g clip-path="url(#clip4_248_2488)">
<path d="M71.7453 10.6055L71.5 10.4674L71.2547 10.6055L67.6307 12.6453L68.5764 8.85073L68.6535 8.54147L68.4057 8.34105L65.2878 5.81937L69.4332 5.48739L69.7267 5.46388L69.8485 5.19573L71.5 1.55927L73.1515 5.19574L73.2733 5.46388L73.5669 5.48739L77.7122 5.81937L74.5943 8.34105L74.3465 8.54147L74.4236 8.85073L75.3693 12.6453L71.7453 10.6055Z" stroke="white"/>
</g>

</g></symbol><symbol id="stars-3-5" viewBox="0 0 79 14"><g fill="none">
<g clip-path="url(#clip0_248_2533)">
<path d="M7.5 11.0412L12.135 13.6501L10.9087 8.72981L15 5.4209L9.60676 4.98898L7.5 0.350098L5.39326 4.98898L0 5.4209L4.09126 8.72981L2.865 13.6501L7.5 11.0412Z" fill="white"/>
</g>
<g clip-path="url(#clip1_248_2533)">
<path d="M23.5 11.0412L28.135 13.6501L26.9087 8.72981L31 5.4209L25.6068 4.98898L23.5 0.350098L21.3933 4.98898L16 5.4209L20.0913 8.72981L18.865 13.6501L23.5 11.0412Z" fill="white"/>
</g>
<g clip-path="url(#clip2_248_2533)">
<path d="M39.5 11.0412L44.135 13.6501L42.9087 8.72981L47 5.4209L41.6068 4.98898L39.5 0.350098L37.3933 4.98898L32 5.4209L36.0913 8.72981L34.865 13.6501L39.5 11.0412Z" fill="white"/>
</g>
<g clip-path="url(#clip3_248_2533)">
<path d="M55.7453 10.6055L55.5 10.4674L55.2547 10.6055L51.6307 12.6453L52.5764 8.85073L52.6535 8.54147L52.4057 8.34105L49.2878 5.81937L53.4332 5.48739L53.7267 5.46388L53.8485 5.19573L55.5 1.55927L57.1515 5.19574L57.2733 5.46388L57.5669 5.48739L61.7122 5.81937L58.5943 8.34105L58.3465 8.54147L58.4236 8.85073L59.3693 12.6453L55.7453 10.6055Z" stroke="white"/>
</g>
<g clip-path="url(#clip4_248_2533)">
<path d="M71.7453 10.6055L71.5 10.4674L71.2547 10.6055L67.6307 12.6453L68.5764 8.85073L68.6535 8.54147L68.4057 8.34105L65.2878 5.81937L69.4332 5.48739L69.7267 5.46388L69.8485 5.19573L71.5 1.55927L73.1515 5.19574L73.2733 5.46388L73.5669 5.48739L77.7122 5.81937L74.5943 8.34105L74.3465 8.54147L74.4236 8.85073L75.3693 12.6453L71.7453 10.6055Z" stroke="white"/>
</g>

</g></symbol></svg>